<svg xmlns="http://www.w3.org/2000/svg" viewBox="0 0 32 32">
	<path d="M16,0C7.178,0,0,7.178,0,16c0,8.822,7.178,16,16,16s16-7.178,16-16C32,7.178,24.822,0,16,0z M16,28.888 C8.895,28.888,3.111,23.106,3.111,16C3.111,8.894,8.895,3.112,16,3.112S28.889,8.894,28.889,16 C28.889,23.106,23.105,28.888,16,28.888z"></path>
	<path d="M22.203,9.393c-0.626-0.587-1.611-0.558-2.199,0.07L16,13.727l-4.004-4.265c-0.588-0.627-1.573-0.657-2.199-0.07 c-0.627,0.589-0.658,1.573-0.069,2.199L13.867,16l-4.14,4.408c-0.589,0.626-0.558,1.61,0.069,2.199 c0.301,0.281,0.683,0.421,1.065,0.421c0.414,0,0.827-0.165,1.134-0.491L16,18.273l4.004,4.265c0.307,0.326,0.72,0.491,1.134,0.491 c0.383,0,0.765-0.14,1.065-0.421c0.627-0.589,0.657-1.573,0.069-2.199L18.133,16l4.14-4.408 C22.86,10.966,22.83,9.981,22.203,9.393z"></path>
</svg>
